<?xml version="1.0" encoding="UTF-8" standalone="no" ?>
<!DOCTYPE svg PUBLIC "-//W3C//DTD SVG 1.1//EN" "http://www.w3.org/Graphics/SVG/1.1/DTD/svg11.dtd">
<svg xmlns="http://www.w3.org/2000/svg" xmlns:xlink="http://www.w3.org/1999/xlink" version="1.1" width="1280" height="1024" viewBox="0 0 1280 1024" xml:space="preserve">
<desc>Created with Fabric.js 5.3.0</desc>
<defs>
</defs>
<g transform="matrix(1 0 0 1 640 512)" id="background-logo"  >
<rect style="stroke: none; stroke-width: 0; stroke-dasharray: none; stroke-linecap: butt; stroke-dashoffset: 0; stroke-linejoin: miter; stroke-miterlimit: 4; fill: rgb(255,255,255); fill-opacity: 0; fill-rule: nonzero; opacity: 1;"  paint-order="stroke"  x="-640" y="-512" rx="0" ry="0" width="1280" height="1024" />
</g>
<g transform="matrix(1.9211538461538462 0 0 1.9211538461538462 640 512)" id="logo-logo"  >
<g style=""  paint-order="stroke"   >
		<g transform="matrix(0.8510678995101015 0 0 0.8510678995101014 -6.507634088363943 141.52123624444528)"  >
<path style="stroke: none; stroke-width: 1; stroke-dasharray: none; stroke-linecap: butt; stroke-dashoffset: 0; stroke-linejoin: miter; stroke-miterlimit: 4; fill: rgb(83,113,255); fill-rule: nonzero; opacity: 1;"  paint-order="stroke"  transform=" translate(-342.353566510839, -516.2866539807505)" d="M 335.1918945 532.3690796 C 334.8088684 534.6134033 338.03301999999996 535.4233399 338.765625 533.2677001999999 C 341.6816406 524.6878661999999 345.351593 513.8275756999999 349.5467224 501.2843017999999 C 346.79464720000004 500.2554321999999 343.9912109 499.17642219999993 341.1410217 498.0440673999999 C 338.770813 511.5241394 336.7579041 523.1934814 335.1918945 532.3690796 z" stroke-linecap="round" />
</g>
		<g transform="matrix(0.8510678995101015 0 0 0.8510678995101014 0 -83.36486620066461)"  >
<path style="stroke: none; stroke-width: 1; stroke-dasharray: none; stroke-linecap: butt; stroke-dashoffset: 0; stroke-linejoin: miter; stroke-miterlimit: 4; fill: rgb(83,113,255); fill-rule: nonzero; opacity: 1;"  paint-order="stroke"  transform=" translate(-350, -252.04674718299617)" d="M 500.5004578 329.6018677 C 502.5603943 308.0708618 501.1097412 286.087616 494.3959961 264.58639530000005 C 487.4122315 242.22581490000005 471.396698 223.46780400000006 450.45382689999997 213.12225350000006 C 440.56375119999996 208.23620610000006 430.09750369999995 205.41876230000005 419.5279541 204.65843210000006 C 417.50308229999996 204.51277170000006 415.6444702 205.78390510000006 415.0858154 207.73562630000006 L 415.061615 207.82011420000006 C 414.30438230000004 210.46546940000007 416.2005615 213.08151250000006 418.9449463 213.28088390000005 C 428.40115360000004 213.96788040000004 437.7675476 216.50502030000004 446.62146 220.87908950000005 C 465.4538269 230.18121350000004 479.8556214 247.05177320000004 486.13647460000004 267.16497820000006 C 492.5665283 287.7569887000001 493.90271000000007 308.87484760000007 491.84848020000004 329.60186780000004 L 403.19506830000006 329.60186780000004 C 414.56546010000005 291.56301890000003 424.81048580000004 254.89993300000003 431.62838740000007 225.56217970000003 C 432.1181640000001 223.45463580000003 430.79345700000005 221.35917680000003 428.6845703000001 220.87527480000003 L 428.61001590000006 220.85816970000002 C 426.62951660000004 220.40373240000002 424.62768560000006 221.5449068 424.00579840000006 223.47935500000003 C 419.0564881000001 238.87501540000002 412.50601200000006 249.57746900000004 408.19802860000004 248.48500080000002 C 403.1335144 247.20088210000003 403.09432990000005 230.12207050000004 408.11068730000005 210.33837910000003 C 413.12704470000006 190.55500810000004 421.29959110000004 175.55818200000002 426.36410530000006 176.8424074 C 429.71633920000005 177.6923982 430.85620120000004 185.47535720000002 429.79446420000005 196.371216 C 429.60675060000005 198.2977297 430.86901860000006 200.0727541 432.75720220000005 200.4986879 L 432.83071900000004 200.5152742 C 434.98147580000006 201.0004274 437.1022644 199.5754091 437.48342900000006 197.40380869999998 C 438.62069710000003 190.9248658 439.43655400000006 185.16120919999997 439.87500000000006 180.2551881 C 441.22213750000003 165.1799012 418.85852050000005 159.5091706 412.8595581000001 173.4050141 C 400.90335080000006 201.1005707 386.0957642000001 263.41210939999996 372.3989258000001 329.60186769999996 L 204.0367432 329.60186769999996 C 204.7176209 319.82882689999997 207.2138062 310.18630979999995 211.551529 301.2735901 C 220.54357919999998 282.7952271 236.14089969999998 269.2256165 255.4708863 263.06393429999997 C 262.8576661 260.7092285 270.4666444 259.5618896 278.0325318 259.5618896 C 296.3276368 259.5618896 314.3602601 266.27337639999996 328.30294810000004 278.85717769999997 C 329.8170777 280.22372429999996 331.78604140000004 281.07077019999997 333.82122810000004 280.93652339999994 C 337.28079230000003 280.7082823999999 339.97747810000004 278.18121329999997 340.54010020000004 274.96151729999997 C 345.13961800000004 248.69252009999997 363.5174256 226.70031729999997 388.50219740000006 217.56800839999997 C 389.14089980000006 217.33448789999997 389.7815858000001 217.11245729999996 390.4240419000001 216.89964289999998 C 391.7668153000001 216.45483389999998 392.7835085000001 215.34608459999998 393.1599123000001 213.98255919999997 L 393.1870729000001 213.88423159999996 C 394.1042177000001 210.56175239999996 390.9305421000001 207.61125189999996 387.66003430000006 208.69932559999995 C 386.94863900000007 208.93600469999996 386.2390748000001 209.18341069999994 385.53161630000005 209.44197089999994 C 358.43801890000003 219.34648139999996 338.30624400000005 242.80117809999996 332.48501600000003 271.0159302999999 C 310.60772720000006 252.27311719999992 280.332306 246.0565033999999 252.84330760000003 254.82127389999994 C 231.23721320000004 261.70874029999993 213.80989090000003 276.86163339999996 203.77188120000002 297.4876709999999 C 198.85763560000004 307.5859985999999 196.07586680000003 318.5259094999999 195.38169870000002 329.6018677999999 L 154.010437 329.6018677999999 C 151.51939389999998 329.6018677999999 149.5 331.6212464999999 149.5 334.11230479999995 L 149.5 334.11230479999995 C 149.5 336.60336309999997 151.5193939 338.6227418 154.010437 338.6227418 L 545.989563 338.6227418 C 548.4805908 338.6227418 550.5 336.60336309999997 550.5 334.11230479999995 L 550.5 334.11230479999995 C 550.5 331.6212464999999 548.4805908 329.6018677999999 545.989563 329.6018677999999 L 500.5004578 329.6018677999999 z" stroke-linecap="round" />
</g>
		<g transform="matrix(0.8510678995101015 0 0 0.8510678995101014 -4.255332441971e-8 96.03756633686635)"  >
<path style="stroke: none; stroke-width: 1; stroke-dasharray: none; stroke-linecap: butt; stroke-dashoffset: 0; stroke-linejoin: miter; stroke-miterlimit: 4; fill: rgb(83,113,255); fill-rule: nonzero; opacity: 1;"  paint-order="stroke"  transform=" translate(-349.99999995, -462.84359739999996)" d="M 154.010437 422.3076172 L 234.27201839999998 422.3076172 C 290.4233398 483.20019529999996 384.0925598 507.1291809 406.207489 512.0675659 C 407.2095337 512.2906494 408.2166138 512.4004516 409.2118835 512.4004516 C 413.2216796 512.4004516 417.0625 510.6329955 419.6968383 507.45455929999997 C 428.47998040000004 496.8572387 453.83776850000004 464.5345764 473.9940795 422.3076172 L 545.9895629 422.3076172 C 548.4805907 422.3076172 550.4999999 420.2882385 550.4999999 417.79718019999996 L 550.4999999 417.79718019999996 C 550.4999999 415.30612189999994 548.4805907 413.28674319999993 545.9895629 413.28674319999993 L 154.010437 413.28674319999993 C 151.51939389999998 413.28674319999993 149.5 415.30612189999994 149.5 417.79718019999996 L 149.5 417.79718019999996 C 149.5 420.2882385 151.5193939 422.3076172 154.010437 422.3076172 z M 354.8842468 422.3076172 C 351.2186279 441.8699646 347.8232727 460.5010071 344.8271179 477.25646969999997 C 348.6584472 478.81610099999995 352.41857910000004 480.28027339999994 356.0826111 481.64950559999994 C 362.00604250000004 463.7699584999999 368.6127014 443.58569329999995 375.44259650000004 422.3076171999999 L 464.44735720000006 422.3076171999999 C 445.0458679000001 461.7353820999999 421.36831670000004 491.88037109999993 413.0357971000001 501.93411259999993 C 411.83102420000006 503.38815309999995 409.93511960000006 504.0328063999999 408.0932617000001 503.62387089999993 C 387.23690790000006 498.96627809999995 300.9433594000001 476.98483279999994 246.19432070000008 422.3076171999999 L 354.8842468 422.3076171999999 z" stroke-linecap="round" />
</g>
</g>
</g>
<g transform="matrix(1.9211538461538462 0 0 1.9211538461538462 639.4791438321128 553.2840221232432)" id="text-logo"  >
<g style=""  paint-order="stroke"   >
		<g transform="matrix(1 0 0 1 0 0)" id="text-logo-path-0"  >
<path style="stroke: none; stroke-width: 0; stroke-dasharray: none; stroke-linecap: butt; stroke-dashoffset: 0; stroke-linejoin: miter; stroke-miterlimit: 4; fill: rgb(139,83,255); fill-rule: nonzero; opacity: 1;"  paint-order="stroke"  transform=" translate(-196.48340243652817, 16.007815370722188)" d="M 21.42 -0.67 C 23.13 -2.34 23.94 -5 23.85 -7.33 C 23.71 -9.72 22.5 -12.06 20.84 -13.81 C 19.48 -15.25 17.64 -16.2 16.47 -17.77 C 15.84 -18.68 15.12 -20.75 15.52 -21.69 C 15.79 -22.5 16.79 -22.27 17.55 -22 C 18.68 -21.51 19.75 -20.93 20.97 -20.65 C 21.73 -20.52 22.5 -20.38 23.27 -20.61 C 23.8 -20.7 24.3 -21.11 24.61 -21.6 C 24.97 -22.18 25.15 -22.95 25.15 -23.71 C 25.2 -25.11 24.88 -26.59 24.16 -27.81 C 23.54 -28.89 21.6 -30.33 21.06 -30.6 C 20.34 -31.05 19.08 -31.54 18.04 -31.63 C 16.25 -31.81 14.45 -31.9 12.64 -31.59 C 8.91 -30.96 5.04 -26.37 4.63 -22.54 C 4.41 -20.84 4.95 -18.99 5.71 -17.46 C 6.71 -15.62 8.14 -14.04 9.45 -12.42 C 10.35 -11.34 11.25 -10.17 11.65 -8.82 C 11.83 -8.32 11.92 -7.79 11.74 -7.38 C 11.56 -7.11 11.25 -6.93 10.93 -6.79 C 10.44 -6.66 9.81 -6.66 9.36 -6.97 C 9 -7.15 7.47 -8.41 7.11 -8.69 C 6.43 -9.31 5.54 -9.72 4.59 -9.72 C 4.05 -9.76 3.46 -9.58 2.97 -9.31 C 2.43 -8.96 2.02 -8.46 1.67 -7.88 C 0.77 -6.43 0.36 -4.59 0.58 -2.92 C 0.72 -1.98 1.03 -1.08 1.57 -0.32 C 2.61 1.03 4.23 1.93 5.85 2.52 C 7.38 3.1 9.09 3.46 10.75 3.51 C 14.58 3.65 18.77 2.02 21.42 -0.67 Z M 45 -3.92 C 45.77 -4.63 46.3 -5.54 46.98 -6.34 C 47.48 -6.84 48.02 -7.47 48.73 -7.65 C 48.96 -7.74 49.09 -7.33 49.23 -7.11 C 49.68 -6.34 49.91 -5.49 50.22 -4.68 C 50.76 -3.51 51.39 -2.29 52.29 -1.4 C 54.45 0.67 57.87 0.04 59.85 -2.25 C 62.05 -4.86 63.05 -8.32 64.4 -11.47 L 66.06 -15.52 C 66.42 -16.52 68.35 -22.14 68.67 -23.18 C 68.81 -23.58 69.16 -25.88 69.21 -26.37 C 69.25 -27.09 69.16 -27.86 68.94 -28.57 C 68.4 -30.42 66.06 -30.91 64.48 -29.83 C 63.36 -29.11 62.59 -27.9 62.01 -26.73 C 60.84 -24.52 60.08 -22.18 59.22 -19.89 C 58.81 -18.95 56.84 -13.54 56.34 -12.6 C 56.11 -12.06 55.8 -11.47 55.3 -11.12 C 54.67 -11.7 54.41 -12.64 54.31 -13.46 C 54.14 -15.79 54.86 -18.22 55.13 -20.52 C 55.17 -21.64 54.95 -22.86 54.31 -23.8 C 53.37 -25.15 51.16 -25.7 49.64 -24.93 C 48.28 -24.16 47.3 -22.81 46.58 -21.46 C 45.59 -19.89 44.82 -18.18 44.19 -16.47 C 43.92 -15.71 43.34 -13.59 42.57 -13.28 C 42.26 -13.46 41.94 -13.77 41.76 -14.08 C 41.53 -14.58 41 -16.7 40.95 -17.59 C 40.91 -18.54 40.81 -24.12 40.73 -25.11 C 40.55 -27.13 40.32 -29.16 39.96 -31.18 C 39.69 -32.63 39.2 -34.24 37.98 -35.05 C 36.27 -36.23 34.11 -35.1 33.16 -33.3 C 32.58 -32.31 32.22 -31.14 32.04 -29.97 C 31.82 -27.99 31.91 -26.01 32.09 -24.03 L 32.58 -18.18 C 32.8 -15.48 32.98 -12.73 33.48 -10.08 C 33.8 -8.37 34.34 -6.61 35.28 -5.22 C 35.87 -4.46 36.5 -3.65 37.3 -3.1 C 38.02 -2.65 38.84 -2.29 39.65 -2.16 C 41.49 -1.84 43.65 -2.61 45 -3.92 Z M 93.47 0.4 C 95.04 -0.36 95.98 -3.01 95.67 -4.77 C 95.45 -5.8 94.59 -6.97 93.51 -7.25 C 92.79 -7.47 88.97 -7.33 88.2 -7.38 C 87.39 -7.42 86.53 -7.6 85.86 -8.01 C 85.14 -8.37 83.97 -9.4 84.06 -10.21 C 84.06 -10.39 84.38 -10.57 84.56 -10.66 C 85.45 -11.03 86.4 -10.98 87.3 -11.21 C 88.29 -11.52 89.23 -12.06 89.95 -12.82 C 91.31 -14.22 90.99 -16.56 89.69 -17.86 C 89.1 -18.5 88.2 -18.81 87.39 -18.95 C 86.22 -19.08 84.83 -18.68 83.84 -19.35 C 83.16 -19.8 82.26 -20.75 82.53 -21.51 C 82.67 -21.82 83.34 -21.96 83.66 -22.05 C 84.24 -22.14 84.92 -22.09 85.55 -22.09 C 86.67 -22.09 87.8 -22.23 88.97 -22.41 C 89.42 -22.45 89.91 -22.59 90.36 -22.77 C 91.53 -23.31 92.61 -24.39 92.97 -25.65 C 93.42 -27.13 92.79 -28.84 91.48 -29.74 C 89.95 -30.82 87.84 -31.14 86 -30.87 C 86.58 -30.91 81.68 -30.51 79.97 -30.24 C 78.3 -30.06 76.59 -29.56 75.28 -28.53 C 74.43 -27.86 73.76 -26.91 73.44 -25.83 C 72.63 -23.63 72.63 -21.15 72.77 -18.77 L 73.22 -13.05 C 73.53 -9.27 74.16 -5.4 75.96 -2.11 C 76.59 -0.94 77.49 0.09 78.62 0.72 C 79.34 1.17 80.19 1.4 81.05 1.53 C 82.31 1.67 83.56 1.57 84.83 1.48 C 86.04 1.4 87.21 1.48 88.38 1.48 C 90.09 1.44 91.89 1.21 93.47 0.4 Z M 120.65 0.4 C 122.22 -0.36 123.17 -3.01 122.85 -4.77 C 122.63 -5.8 121.77 -6.97 120.69 -7.25 C 119.97 -7.47 116.15 -7.33 115.38 -7.38 C 114.57 -7.42 113.72 -7.6 113.04 -8.01 C 112.32 -8.37 111.15 -9.4 111.24 -10.21 C 111.24 -10.39 111.56 -10.57 111.74 -10.66 C 112.64 -11.03 113.58 -10.98 114.48 -11.21 C 115.47 -11.52 116.42 -12.06 117.14 -12.82 C 118.49 -14.22 118.17 -16.56 116.87 -17.86 C 116.28 -18.5 115.38 -18.81 114.57 -18.95 C 113.4 -19.08 112.01 -18.68 111.02 -19.35 C 110.34 -19.8 109.44 -20.75 109.71 -21.51 C 109.85 -21.82 110.52 -21.96 110.84 -22.05 C 111.42 -22.14 112.1 -22.09 112.73 -22.09 C 113.85 -22.09 114.98 -22.23 116.15 -22.41 C 116.6 -22.45 117.09 -22.59 117.54 -22.77 C 118.71 -23.31 119.79 -24.39 120.15 -25.65 C 120.6 -27.13 119.97 -28.84 118.67 -29.74 C 117.14 -30.82 115.02 -31.14 113.18 -30.87 C 113.76 -30.91 108.86 -30.51 107.15 -30.24 C 105.48 -30.06 103.77 -29.56 102.47 -28.53 C 101.61 -27.86 100.94 -26.91 100.62 -25.83 C 99.81 -23.63 99.81 -21.15 99.95 -18.77 L 100.4 -13.05 C 100.71 -9.27 101.34 -5.4 103.14 -2.11 C 103.77 -0.94 104.67 0.09 105.8 0.72 C 106.52 1.17 107.37 1.4 108.23 1.53 C 109.49 1.67 110.75 1.57 112.01 1.48 C 113.22 1.4 114.39 1.48 115.56 1.48 C 117.27 1.44 119.07 1.21 120.65 0.4 Z M 147.92 -1.13 C 148.59 -2.29 148.64 -3.82 148.55 -5.17 C 148.41 -7.79 147.69 -10.26 147.24 -12.82 L 146.3 -18.31 C 146.12 -19.3 145.53 -22.09 146.07 -22.95 C 146.52 -23.63 148.73 -23.98 149.54 -24.16 C 150.93 -24.52 152.37 -24.84 153.5 -25.65 C 154.67 -26.46 155.3 -27.86 155.16 -29.25 C 155.07 -29.92 154.8 -30.6 154.4 -31.18 C 153.68 -32.17 152.51 -32.85 151.25 -33.03 C 150.39 -33.12 149.45 -33.07 148.55 -32.94 C 143.55 -32.35 140.31 -32.17 136.31 -31.54 C 134.46 -31.32 132.62 -30.91 130.82 -30.33 C 129.38 -29.83 127.94 -29.34 126.77 -28.35 C 126 -27.72 125.28 -26.82 125.01 -25.88 C 124.34 -23.22 126.72 -21.02 129.42 -20.88 C 130.1 -20.88 130.77 -20.97 131.4 -21.11 C 132.08 -21.29 134.19 -22 134.82 -21.73 C 135.27 -21.6 135.54 -20.97 135.72 -20.47 C 136.04 -19.48 136.08 -18.4 136.13 -17.32 C 136.22 -14.58 136.26 -11.83 136.44 -9.09 C 136.67 -6.75 137.3 -4.32 138.38 -2.11 C 139.41 0 141.8 1.35 144.23 1.21 C 145.8 1.17 147.2 0.22 147.92 -1.13 Z M 195.93 -0.67 C 197.64 -2.34 198.45 -5 198.36 -7.33 C 198.22 -9.72 197.01 -12.06 195.34 -13.81 C 194 -15.25 192.15 -16.2 190.98 -17.77 C 190.35 -18.68 189.63 -20.75 190.03 -21.69 C 190.3 -22.5 191.29 -22.27 192.06 -22 C 193.19 -21.51 194.26 -20.93 195.48 -20.65 C 196.25 -20.52 197.01 -20.38 197.77 -20.61 C 198.31 -20.7 198.81 -21.11 199.13 -21.6 C 199.48 -22.18 199.66 -22.95 199.66 -23.71 C 199.71 -25.11 199.39 -26.59 198.67 -27.81 C 198.04 -28.89 196.11 -30.33 195.57 -30.6 C 194.85 -31.05 193.59 -31.54 192.55 -31.63 C 190.75 -31.81 188.95 -31.9 187.16 -31.59 C 183.42 -30.96 179.55 -26.37 179.14 -22.54 C 178.92 -20.84 179.46 -18.99 180.22 -17.46 C 181.22 -15.62 182.66 -14.04 183.96 -12.42 C 184.86 -11.34 185.76 -10.17 186.16 -8.82 C 186.34 -8.32 186.44 -7.79 186.25 -7.38 C 186.07 -7.11 185.76 -6.93 185.44 -6.79 C 184.95 -6.66 184.32 -6.66 183.87 -6.97 C 183.51 -7.15 181.98 -8.41 181.62 -8.69 C 180.94 -9.31 180.04 -9.72 179.1 -9.72 C 178.56 -9.76 177.97 -9.58 177.48 -9.31 C 176.94 -8.96 176.53 -8.46 176.17 -7.88 C 175.27 -6.43 174.87 -4.59 175.09 -2.92 C 175.23 -1.98 175.54 -1.08 176.08 -0.32 C 177.12 1.03 178.74 1.93 180.36 2.52 C 181.89 3.1 183.6 3.46 185.26 3.51 C 189.09 3.65 193.27 2.02 195.93 -0.67 Z M 228.24 -1.13 C 228.91 -2.29 228.96 -3.82 228.87 -5.17 C 228.73 -7.79 228.01 -10.26 227.56 -12.82 L 226.62 -18.31 C 226.44 -19.3 225.85 -22.09 226.39 -22.95 C 226.84 -23.63 229.05 -23.98 229.86 -24.16 C 231.25 -24.52 232.69 -24.84 233.82 -25.65 C 234.99 -26.46 235.62 -27.86 235.48 -29.25 C 235.39 -29.92 235.13 -30.6 234.72 -31.18 C 234 -32.17 232.83 -32.85 231.57 -33.03 C 230.72 -33.12 229.77 -33.07 228.87 -32.94 C 223.88 -32.35 220.63 -32.17 216.63 -31.54 C 214.78 -31.32 212.94 -30.91 211.14 -30.33 C 209.7 -29.83 208.26 -29.34 207.09 -28.35 C 206.32 -27.72 205.6 -26.82 205.33 -25.88 C 204.66 -23.22 207.04 -21.02 209.75 -20.88 C 210.42 -20.88 211.09 -20.97 211.72 -21.11 C 212.4 -21.29 214.51 -22 215.14 -21.73 C 215.59 -21.6 215.86 -20.97 216.04 -20.47 C 216.36 -19.48 216.41 -18.4 216.45 -17.32 C 216.54 -14.58 216.58 -11.83 216.76 -9.09 C 216.99 -6.75 217.62 -4.32 218.7 -2.11 C 219.73 0 222.12 1.35 224.55 1.21 C 226.13 1.17 227.52 0.22 228.24 -1.13 Z M 258.62 -1.53 C 259.83 -2.43 260.73 -3.69 261.45 -5.04 C 262.57 -6.93 263.61 -8.91 264.38 -10.93 C 266 -15.25 266.71 -19.93 266.63 -24.52 C 266.53 -28.13 264.33 -32.45 261.31 -30.51 C 260.37 -29.92 259.78 -29.02 259.33 -28.04 C 258.39 -25.96 257.76 -23.71 257.08 -21.55 C 256.37 -19.35 256 -17.1 255.38 -14.89 C 255.19 -14.13 254.92 -13.32 254.52 -12.55 C 254.07 -11.83 253.08 -10.53 252.22 -10.62 C 251.82 -10.71 251.55 -11.03 251.32 -11.29 C 250.69 -12.15 250.42 -13.28 250.33 -14.31 C 250.29 -15.25 250.97 -23.09 251.01 -23.89 C 251.05 -25.83 251.1 -27.86 250.29 -29.61 C 249.3 -31.68 246.47 -31.72 244.71 -30.2 C 243.9 -29.43 243.31 -28.39 242.86 -27.36 C 241.6 -24.07 241.29 -20.52 241.29 -17.01 C 241.29 -14.17 241.6 -11.16 242.73 -8.59 C 243.67 -6.52 245.02 -4.59 246.73 -3.15 C 248.58 -1.62 250.78 -0.18 253.13 0.09 C 255.01 0.27 257.08 -0.45 258.62 -1.53 Z M 279.58 -4.27 C 280.57 -6.48 280.44 -9.13 280.75 -11.52 C 280.84 -11.7 280.84 -11.83 280.98 -12.01 C 281.3 -12.01 282.69 -11.7 283.05 -11.61 C 284.36 -11.29 285.84 -10.98 287.14 -11.38 C 288.23 -11.7 289.13 -12.55 289.67 -13.54 C 290.34 -14.67 290.34 -16.06 289.62 -17.14 C 289.13 -17.86 288.18 -18.27 287.32 -18.5 C 286.02 -18.86 284.63 -18.86 283.27 -19.26 C 282.92 -19.35 282.42 -19.48 282.19 -19.84 C 281.3 -21.24 282.96 -22.63 284.58 -22.27 C 285.39 -22 286.25 -21.73 287.1 -21.64 C 288.54 -21.46 290.16 -21.51 291.46 -22.05 C 292.5 -22.5 293.53 -23.31 294.12 -24.34 C 294.84 -25.65 294.57 -27.45 293.44 -28.53 C 292.63 -29.29 291.56 -29.79 290.52 -30.15 C 289.35 -30.6 285.03 -31.54 283.81 -31.68 C 282.38 -31.95 280.84 -32.31 279.4 -32.13 C 278.28 -32.04 277.15 -31.68 276.3 -31 C 275.04 -29.97 274.19 -28.53 273.64 -27.04 C 272.83 -24.84 272.83 -22.45 272.61 -20.07 C 272.3 -16.52 271.71 -12.96 271.57 -9.36 C 271.57 -8.05 271.62 -6.75 271.89 -5.44 C 272.02 -4.37 272.38 -3.28 273.11 -2.48 C 275 -0.27 278.32 -1.62 279.58 -4.27 Z M 305.91 -4.27 C 306.9 -6.48 306.76 -9.13 307.08 -11.52 C 307.17 -11.7 307.17 -11.83 307.31 -12.01 C 307.62 -12.01 309.01 -11.7 309.38 -11.61 C 310.68 -11.29 312.16 -10.98 313.47 -11.38 C 314.55 -11.7 315.45 -12.55 315.99 -13.54 C 316.66 -14.67 316.66 -16.06 315.94 -17.14 C 315.45 -17.86 314.5 -18.27 313.65 -18.5 C 312.34 -18.86 310.95 -18.86 309.6 -19.26 C 309.24 -19.35 308.75 -19.48 308.52 -19.84 C 307.62 -21.24 309.28 -22.63 310.9 -22.27 C 311.71 -22 312.57 -21.73 313.42 -21.64 C 314.87 -21.46 316.48 -21.51 317.79 -22.05 C 318.82 -22.5 319.86 -23.31 320.44 -24.34 C 321.16 -25.65 320.89 -27.45 319.77 -28.53 C 318.96 -29.29 317.88 -29.79 316.84 -30.15 C 315.67 -30.6 311.35 -31.54 310.14 -31.68 C 308.7 -31.95 307.17 -32.31 305.73 -32.13 C 304.6 -32.04 303.48 -31.68 302.63 -31 C 301.37 -29.97 300.51 -28.53 299.97 -27.04 C 299.16 -24.84 299.16 -22.45 298.94 -20.07 C 298.62 -16.52 298.03 -12.96 297.9 -9.36 C 297.9 -8.05 297.94 -6.75 298.21 -5.44 C 298.35 -4.37 298.71 -3.28 299.43 -2.48 C 301.32 -0.27 304.65 -1.62 305.91 -4.27 Z M 332.59 0.18 C 333.36 -0.54 333.9 -1.48 334.21 -2.48 C 334.71 -4.09 334.75 -5.85 334.71 -7.56 C 334.71 -11.03 334.75 -14.45 334.84 -17.86 C 334.89 -20.34 335.2 -22.77 335.16 -25.2 C 335.16 -26.37 334.93 -27.54 334.3 -28.48 C 333.94 -29.07 333.54 -29.56 333 -30.02 C 331.56 -31.05 328.95 -30.73 327.64 -29.52 C 326.74 -28.71 326.16 -27.49 325.84 -26.28 C 325.39 -24.79 325.13 -23.22 325.08 -21.64 L 325.13 -12.6 C 325.3 -11.43 324.99 -5.44 324.99 -4.27 C 325.03 -2.83 325.26 -1.21 326.2 -0.14 C 327.82 1.8 330.75 1.93 332.59 0.18 Z M 361.85 0.4 C 363.42 -0.36 364.37 -3.01 364.05 -4.77 C 363.82 -5.8 362.97 -6.97 361.89 -7.25 C 361.17 -7.47 357.35 -7.33 356.58 -7.38 C 355.77 -7.42 354.92 -7.6 354.24 -8.01 C 353.52 -8.37 352.35 -9.4 352.44 -10.21 C 352.44 -10.39 352.75 -10.57 352.94 -10.66 C 353.84 -11.03 354.78 -10.98 355.68 -11.21 C 356.67 -11.52 357.62 -12.06 358.34 -12.82 C 359.69 -14.22 359.37 -16.56 358.06 -17.86 C 357.48 -18.5 356.58 -18.81 355.77 -18.95 C 354.6 -19.08 353.21 -18.68 352.22 -19.35 C 351.54 -19.8 350.64 -20.75 350.91 -21.51 C 351.05 -21.82 351.72 -21.96 352.04 -22.05 C 352.62 -22.14 353.3 -22.09 353.93 -22.09 C 355.05 -22.09 356.18 -22.23 357.35 -22.41 C 357.8 -22.45 358.29 -22.59 358.74 -22.77 C 359.91 -23.31 360.99 -24.39 361.35 -25.65 C 361.8 -27.13 361.17 -28.84 359.87 -29.74 C 358.34 -30.82 356.22 -31.14 354.38 -30.87 C 354.96 -30.91 350.06 -30.51 348.35 -30.24 C 346.68 -30.06 344.97 -29.56 343.67 -28.53 C 342.81 -27.86 342.13 -26.91 341.82 -25.83 C 341.01 -23.63 341.01 -21.15 341.15 -18.77 L 341.6 -13.05 C 341.91 -9.27 342.54 -5.4 344.34 -2.11 C 344.97 -0.94 345.87 0.09 347 0.72 C 347.72 1.17 348.57 1.4 349.43 1.53 C 350.69 1.67 351.94 1.57 353.21 1.48 C 354.42 1.4 355.59 1.48 356.76 1.48 C 358.47 1.44 360.27 1.21 361.85 0.4 Z M 388.71 -0.67 C 390.42 -2.34 391.23 -5 391.14 -7.33 C 391 -9.72 389.79 -12.06 388.13 -13.81 C 386.78 -15.25 384.93 -16.2 383.76 -17.77 C 383.13 -18.68 382.41 -20.75 382.81 -21.69 C 383.09 -22.5 384.08 -22.27 384.84 -22 C 385.97 -21.51 387.05 -20.93 388.26 -20.65 C 389.03 -20.52 389.79 -20.38 390.56 -20.61 C 391.1 -20.7 391.59 -21.11 391.91 -21.6 C 392.27 -22.18 392.44 -22.95 392.44 -23.71 C 392.49 -25.11 392.18 -26.59 391.46 -27.81 C 390.83 -28.89 388.89 -30.33 388.35 -30.6 C 387.63 -31.05 386.37 -31.54 385.34 -31.63 C 383.54 -31.81 381.74 -31.9 379.94 -31.59 C 376.2 -30.96 372.33 -26.37 371.93 -22.54 C 371.7 -20.84 372.24 -18.99 373 -17.46 C 374 -15.62 375.44 -14.04 376.74 -12.42 C 377.64 -11.34 378.54 -10.17 378.94 -8.82 C 379.13 -8.32 379.22 -7.79 379.04 -7.38 C 378.86 -7.11 378.54 -6.93 378.23 -6.79 C 377.73 -6.66 377.1 -6.66 376.65 -6.97 C 376.29 -7.15 374.76 -8.41 374.4 -8.69 C 373.73 -9.31 372.83 -9.72 371.88 -9.72 C 371.34 -9.76 370.75 -9.58 370.26 -9.31 C 369.72 -8.96 369.31 -8.46 368.96 -7.88 C 368.06 -6.43 367.65 -4.59 367.88 -2.92 C 368.01 -1.98 368.33 -1.08 368.87 -0.32 C 369.9 1.03 371.52 1.93 373.14 2.52 C 374.67 3.1 376.38 3.46 378.05 3.51 C 381.87 3.65 386.06 2.02 388.71 -0.67 Z" stroke-linecap="round" />
</g>
</g>
</g>
</svg>